<?xml version="1.0" encoding="utf-8"?>
<!-- Generator: Adobe Illustrator 22.0.0, SVG Export Plug-In . SVG Version: 6.00 Build 0)  -->
<svg version="1.1" id="Camada_1" xmlns="http://www.w3.org/2000/svg" xmlns:xlink="http://www.w3.org/1999/xlink" x="0px" y="0px"
	 viewBox="0 0 146.3 204.1" style="enable-background:new 0 0 146.3 204.1;" xml:space="preserve">
<style type="text/css">
	.st0{fill:#8EBFB5;}
	.st1{fill:#FFFFFF;stroke:#FFFFFF;stroke-width:3;stroke-miterlimit:10;}
	.st2{fill:#BC503B;stroke:#BC503B;stroke-width:2.75;stroke-miterlimit:10;}
	.st3{fill:#BC503B;stroke:#BC503B;stroke-width:3;stroke-miterlimit:10;}
</style>
<path class="st0" d="M20.9,6.7h105.2c6.8,0,12.4,5.6,12.4,12.4v178.2H20.9c-6.8,0-12.4-5.6-12.4-12.4V19.1
	C8.5,12.3,14.1,6.7,20.9,6.7z"/>
<g>
	<path class="st1" d="M106.5,197.3H71.8c-1.5,0-2.9-1.4-2.9-3v-0.1c0-2.9,1.2-5.6,3.4-7.5c1.9-1.8,4.5-2.6,6.9-2.3v-11
		c0-4.4-3.3-7.9-7.5-7.9c-3.8,0-6.9,3-7.3,6.9v0.1c0,0.3,0,0.5,0,0.7c0,0.3,0,0.4,0,0.7c0,0,0,0,0,0.1l-0.1,22
		c0,0.5-0.4,1.1-1.1,1.1h-21c-1.5,0-2.7-1.4-2.7-3c0-5.6,4.2-10.1,9.5-10.1c0.3,0,0.4,0,0.7,0c-2.3-17.8-4.4-49.9,5.9-76.2
		c0.7-1.8,1.5-3.5,2.2-5.3c-1,0.7-2,1.1-3.1,1c-0.3,0-8.6-0.8-12.1-8.4c-1-2-1.5-4.4-1.5-6.7c0-4.1,1.5-7.2,1.9-7.8
		c3.4-6.8,7.8-13.1,13.1-18.2c3.3-3.3,6.9-6.9,11.2-9c0,0,0.1,0,0.1-0.1c3.8-1.2,7.9-1.8,11.8-1.6c4.5,0.1,9,1.1,13.2,3
		c3-0.5,5.9-1.5,8.6-2.7c3.7-1.6,7.2-3.9,10.3-6.7c0.1-0.1,0.1-0.1,0.3-0.1h0.1c0.1,0,0.3,0,0.4,0c0.5,0,1.1,0.1,1.6,0.4
		c7.9,3.3,5.9,25,5,30.2c0,0.1-0.1,0.3-0.1,0.4l-0.1,0.1c-0.1,0.1-0.3,0.3-0.4,0.4c-7.2,4.1-13.6,9.3-19.1,15.4
		c-2.4,2.7-4.6,5.7-6.5,8.7c10.6,7.1,19.3,15.9,26.3,26.4c8.2,12.5,13.3,27.1,15.1,43.3c0,0.5-0.3,1.1-1,1.2c-0.5,0.1-1.1-0.4-1.1-1
		C130,155,125,140.8,117,128.6c-6.9-10.6-15.9-19.5-26.5-26.4c-0.3-0.1-0.4-0.4-0.4-0.7c0-0.3,0-0.5,0.1-0.8
		c2.2-3.5,4.6-6.9,7.3-9.9c5.4-6.3,12-11.6,19.2-15.6c1.2-7.2,1.8-25.2-3.8-27.4c-0.3-0.1-0.5-0.1-0.8-0.3c-3.3,2.7-6.8,5-10.6,6.7
		c-3,1.4-6.1,2.3-9.4,2.9c-0.1,0-0.4,0-0.5,0c-4.1-1.8-8.3-2.7-12.7-2.9c-3.8-0.1-7.5,0.4-11.2,1.5c-3.9,1.8-7.3,5.3-10.6,8.6
		c-5.2,5-9.4,11-12.7,17.7c-0.1,0.3-1.6,3.1-1.6,6.8c0,2,0.4,3.9,1.2,5.7c3.1,6.7,10.5,7.2,10.5,7.3c1.2,0.1,2.7-1.2,4.1-2.3
		c0.4-0.4,0.8-0.7,1.2-1s1-0.3,1.2,0c0.4,0.3,0.4,0.8,0.3,1.4c-1.5,3-2.9,6.1-4.1,9.3c-10.3,26.4-7.9,59.2-5.6,76.5
		c0,0.4-0.1,0.7-0.3,1c-0.3,0.3-0.5,0.3-1,0.3c-0.5-0.1-1.1-0.1-1.6-0.1c-4.1,0-7.5,3.5-7.5,7.9c0,0.4,0.3,0.8,0.7,0.8h19.9l0.1-21
		c0-0.3,0-0.5,0-0.8s0-0.7,0-1v-0.1c0.5-5.2,4.5-9,9.4-9c5.2,0,9.5,4.5,9.5,10.1V186c0,0.3-0.1,0.7-0.4,0.8
		c-0.3,0.3-0.5,0.3-0.8,0.3c-0.1,0-0.3-0.1-0.5-0.1c-2-0.4-4.2,0.3-6,1.8c-1.6,1.5-2.6,3.7-2.6,5.9v0.1c0,0.4,0.4,0.8,0.8,0.8H106
		c0.5,0,1.1,0.5,1.1,1.1S107,197.3,106.5,197.3z"/>
	<g>
		<path class="st2" d="M138.5,181.5L138.5,181.5c-0.1-0.7,0-1.5-0.1-2.2c0-0.6-0.6-1.1-1.2-1c-0.5,0.1-0.8,0.4-1,0.8l0,0
			c0,0.1-0.1,0.3-0.1,0.4c0.1,0.5,0.1,1.2,0.1,1.7c0.1,4.2-0.1,8.5-0.5,12.6c-0.2,0.7-0.7,1.3-1.5,1.3H108c-0.7,0-1.2,0.6-1.2,1.1
			c0,0.6,0.6,1.1,1.2,1.1h26.2c1.8,0,3.4-1.4,3.7-3.4C138.4,189.9,138.6,185.7,138.5,181.5z"/>
		<path class="st3" d="M108,197.2c-4.7,0-9.2-1.3-12.7-3.6c-2.6-1.7-3.7-3.2-4-3.6c-5-6.5-4.8-14.7,0.3-19.6
			c3.4-3.2,8.1-4.2,12.4-2.9c-0.9-4.6,0.4-9.4,4-12.6c5.1-4.9,13.3-4.6,19.3,0.8c0.3,0.3,1.8,1.4,3.4,4.2c3.2,5.6,3.4,10.4,2.9,13.3
			c-1.5,9.4-9.8,15.4-17,16.4c-1.9,0.3-3.8,0.1-5.7-0.1c-0.6-0.1-1-0.7-0.9-1.3s0.7-1,1.3-0.8c1.6,0.3,3.4,0.4,5,0.1
			c6.4-0.8,13.8-6.6,15.1-14.6c0.4-2.7,0.3-6.9-2.6-11.9c-1.5-2.5-2.8-3.5-2.8-3.5s-1.7-1.3-2.5-1.8c-1.6-1-3.2-1.6-4.9-1.8
			c-3.3-0.5-6.6,0.4-9.1,2.8c-3.2,3.1-4.4,8-2.8,12.5l0.9,2.5l-2.3-1.1c-4.4-2-8.9-1.3-12.2,1.8c-1.7,1.6-2.8,3.7-3.1,5.9
			c-0.5,2.8,0.1,5.8,1.6,8.7c0.4,0.7,1.4,2.3,1.4,2.3s0.9,1.4,3.4,2.9c3.2,2.1,7.6,3.4,12,3.2c0.6,0,1.2,0.4,1.2,1.1
			C109.5,196.9,108.2,197.2,108,197.2z"/>
	</g>
</g>
</svg>
