<?xml version="1.0" encoding="utf-8"?>
<!-- Generator: Adobe Illustrator 22.0.0, SVG Export Plug-In . SVG Version: 6.00 Build 0)  -->
<svg version="1.1" id="Camada_1" xmlns="http://www.w3.org/2000/svg" xmlns:xlink="http://www.w3.org/1999/xlink" x="0px" y="0px"
	 viewBox="0 0 110.8 45" style="enable-background:new 0 0 110.8 45;" xml:space="preserve">
<style type="text/css">
	.st0{display:none;}
	.st1{display:inline;fill:#001168;}
	.st2{fill:#8EBFB5;}
	.st3{fill:#CCE5DD;}
</style>
<g id="Camada_2_1_" class="st0">
	<rect x="-19.3" y="-2.8" class="st1" width="129.4" height="32"/>
</g>
<path d="M-14.6,12.6"/>
<g>
	<path class="st2" d="M17.9,35.9H2c-0.6,0-1-0.4-1-1s0.4-1,1-1h16c0.6,0,1,0.4,1,1S18.4,35.9,17.9,35.9z"/>
	<path class="st2" d="M17.9,30.6H2c-0.6,0-1-0.4-1-1s0.4-1,1-1h16c0.6,0,1,0.4,1,1S18.4,30.6,17.9,30.6z"/>
	<path class="st2" d="M17.9,41.3H2c-0.6,0-1-0.4-1-1s0.4-1,1-1h16c0.6,0,1,0.4,1,1C18.9,40.7,18.4,41.3,17.9,41.3z"/>
</g>
<g>
	<path class="st2" d="M74.5,35.7c-0.3,0.9-1.7-0.2-1.2-1.1C73.7,33.7,74.9,34.8,74.5,35.7L74.5,35.7z"/>
	<path class="st2" d="M84.5,28.5c-1.7-1.7-3.9-2.6-6.4-2.6s-4.6,0.9-6.4,2.6c-1.7,1.7-2.6,3.9-2.6,6.4s0.9,4.6,2.6,6.4
		c1.8,1.7,4,2.6,6.4,2.6c2.4,0,4.6-0.9,6.4-2.6c1.7-1.7,2.6-3.9,2.6-6.4S86.2,30.3,84.5,28.5z M78.5,31.5c0.3-1.1,1.3-1.7,2.1-1.5
		c1.9,0.6,1.3,3.8-0.7,3.8C78.9,33.9,78.1,32.7,78.5,31.5z M74.8,30.8c0.8-1.4,2.6-1,3.2,0.7c0.3,1.2-0.3,2.5-1.5,2.5
		C75,33.9,74,32.1,74.8,30.8z M73.1,33.4c1.5-0.6,3,1.2,2.4,2.8c-0.2,0.7-0.8,1-1.3,1C72.1,37.1,71.3,34,73.1,33.4z M81.1,39.4
		c-0.4,0.5-1.2,0.6-1.7,0.5c-1.2-0.3-3,0-3.3,0c-1.1,0-1.9-0.8-1.7-1.8c0.2-1.2,1.2-1.2,1.5-2.4c0.5-2.4,3.5-2.4,3.9,0
		c0.2,1.2,1.2,1.1,1.5,2.4C81.6,38.1,81.7,38.9,81.1,39.4z M82.1,37.3c-1.8,0-2.1-2.7-0.5-3.7c0.9-0.5,1.8-0.1,2.3,0.8
		C84.5,35.6,83.5,37.3,82.1,37.3z"/>
	<path class="st2" d="M82.5,34.4c-0.6,0-1.1,0.9-0.8,1.5c0.2,0.6,0.9,0.3,1.2-0.3C83.1,35.1,83,34.4,82.5,34.4L82.5,34.4z"/>
	<path class="st2" d="M79,35.8c-0.1-0.6-0.3-0.9-1-0.9c-0.1,0-0.7,0.1-0.9,0.9c-0.2,1.6-1.3,1.7-1.5,2.5c-0.1,0.6,0.6,0.6,0.8,0.6
		c2.3-0.6,4.3,0.7,4.2-0.6C80.3,37.5,79.3,37.4,79,35.8L79,35.8z"/>
	<path class="st2" d="M80.7,31.3c-0.3-0.6-1-0.2-1.1,0.4c-0.1,0.4,0,1,0.3,1C80.4,33,81,32,80.7,31.3L80.7,31.3z"/>
	<path class="st2" d="M75.7,31.3c-0.5,0.9,0.7,2.1,1.1,1.2C77.3,31.7,76.2,30.4,75.7,31.3L75.7,31.3z"/>
</g>
<g>
	<path class="st2" d="M100.8,33.4c-0.9,0-1.6,0.7-1.6,1.6s0.7,1.6,1.6,1.6s1.6-0.7,1.6-1.6S101.7,33.4,100.8,33.4L100.8,33.4z"/>
	<path class="st2" d="M100.8,33.4"/>
	<path class="st2" d="M100.8,26c-5,0-9,4.1-9,9s4,9,9,9s9-4,9-9S105.7,26,100.8,26z M104.5,37.5c-0.7,0-1.3-0.3-1.7-0.9
		c-0.4,0.6-1.2,0.9-1.9,0.9c-1.5,0-2.6-1.2-2.6-2.6c0-1.5,1.2-2.6,2.6-2.6c0.6,0,1.1,0.2,1.6,0.6l0,0c0-0.3,0.2-0.6,0.6-0.6
		s0.6,0.2,0.6,0.6c0,1.1,0,1.5,0,2.6c0,0.6,0.5,1,1,1s1-0.5,1-1c0-3.5-2.4-5.3-4.7-5.3c-2.6,0-4.7,2.1-4.7,4.7
		c0,2.6,2.1,4.7,4.7,4.7c1,0,2-0.3,2.9-1c0.6-0.5,1.2,0.5,0.7,0.8c-1,0.8-2.3,1.2-3.5,1.2c-3.2,0-5.8-2.6-5.8-5.9S97.7,29,101,29
		c2.9,0,5.8,2.1,5.8,6.3C106.6,36.6,105.6,37.5,104.5,37.5z"/>
	<path class="st2" d="M104.5,37.5"/>
</g>
<g>
	<path class="st2" d="M56.4,32.5L55.8,33c-0.1,0.1-0.2,0.1-0.4,0.1c-0.1,0-0.2,0-0.2-0.1l-0.6-0.6c-0.3-0.3-0.9-0.6-1.5-0.6
		s-1,0.2-1.5,0.6c-0.8,0.8-0.8,2,0,2.8c0.8,0.9,2.9,2.7,3.7,3.4c0.8-0.7,2.9-2.5,3.7-3.4c0.8-0.9,0.8-2.1,0-2.8
		C58.4,31.7,57.2,31.7,56.4,32.5L56.4,32.5z"/>
	<path class="st2" d="M55.4,26c-4.9,0-9,4-9,9s4,9,9,9s9-4,9-9C64.5,30,60.4,26,55.4,26z M59.9,36c-1,1.1-4,3.6-4.2,3.7
		c-0.1,0.1-0.2,0.1-0.3,0.1l0,0c-0.1,0-0.2,0-0.3-0.1s-3.1-2.6-4.2-3.7c-1.1-1.2-1.1-3,0-4.2c1.1-1.1,3-1.1,4.2,0l0.2,0.2l0.2-0.2
		c1.1-1.1,3-1.1,4.2,0C61,32.9,61,34.7,59.9,36z"/>
</g>
<g>
	<path class="st2" d="M32.7,37.1c-1.4,0-2.5,1-2.5,2.3v4.5h5.1v-4.5C35.2,38.1,34,37.1,32.7,37.1L32.7,37.1z"/>
	<path class="st2" d="M32.7,25.9l-9,10.9l0.9,0.7l1.1-1.4V44H29v-4.5c0-1.8,1.7-3.4,3.7-3.4c2,0,3.7,1.5,3.7,3.4V44h3.3v-7.8
		l1.1,1.4l0.9-0.7L32.7,25.9z M35.3,34L35.3,34c0.2,0.2,0.2,0.6,0,0.8L35.2,35c-0.2,0.2-0.6,0.2-0.8,0l-0.5-0.5
		c-0.1-0.1-0.2-0.1-0.5-0.1h-1.6c-0.1,0-0.3,0.1-0.4,0.1L31,35c-0.2,0.2-0.6,0.2-0.8,0h-0.1c-0.2-0.2-0.2-0.6,0-0.8
		c0.2-0.2,0.2-0.6,0-0.8l0,0c-0.2-0.2-0.2-0.6,0-0.8l0.1-0.1c0.2-0.2,0.6-0.2,0.8,0l0.4,0.5c0.1,0.1,0.2,0.1,0.4,0.1h1.6
		c0.1,0,0.3-0.1,0.5-0.1l0.5-0.5c0.2-0.2,0.6-0.2,0.8,0l0.1,0.1c0.2,0.2,0.2,0.6,0,0.8C35.1,33.5,35.1,33.8,35.3,34z"/>
</g>
<g>
	<path class="st3" d="M17.9,11H2c-0.6,0-1-0.4-1-1c0-0.6,0.4-1,1-1h16c0.6,0,1,0.4,1,1C19,10.5,18.4,11,17.9,11z"/>
	<path class="st3" d="M17.9,5.7H2c-0.6,0-1-0.4-1-1s0.4-1,1-1h16c0.6,0,1,0.4,1,1C18.9,5.2,18.4,5.7,17.9,5.7z"/>
	<path class="st3" d="M17.9,16.3H2c-0.6,0-1-0.4-1-1c0-0.6,0.4-1,1-1h16c0.6,0,1,0.4,1,1C18.9,15.8,18.4,16.3,17.9,16.3z"/>
</g>
<g>
	<path class="st3" d="M74.4,10.8c-0.3,0.9-1.7-0.2-1.2-1.1C73.6,8.8,74.8,9.9,74.4,10.8L74.4,10.8z"/>
	<path class="st3" d="M84.4,3.6C82.7,1.9,80.4,1,78,1s-4.6,0.9-6.3,2.6C70,5.3,69.1,7.5,69.1,10s0.9,4.6,2.6,6.4
		c1.7,1.7,3.9,2.6,6.4,2.6c2.5,0,4.6-0.9,6.4-2.6c1.7-1.7,2.6-3.9,2.6-6.4S86.1,5.4,84.4,3.6z M78.4,6.5c0.3-1.1,1.3-1.7,2.1-1.5
		c1.9,0.6,1.3,3.8-0.7,3.8C78.8,9,78,7.8,78.4,6.5z M74.7,5.8c0.8-1.4,2.6-1,3.2,0.7C78.2,7.8,77.5,9,76.4,9
		C74.9,9,73.9,7.2,74.7,5.8z M73,8.4c1.5-0.6,3,1.2,2.4,2.8c-0.2,0.7-0.8,1-1.3,1C72,12.1,71.2,9.1,73,8.4z M81,14.5
		c-0.5,0.4-1.2,0.6-1.7,0.4c-1.2-0.3-3,0-3.3,0c-1.1,0-1.9-0.8-1.7-1.8c0.2-1.2,1.2-1.2,1.5-2.4c0.5-2.4,3.5-2.4,3.9,0
		c0.2,1.2,1.2,1.1,1.5,2.4C81.5,13.2,81.6,13.9,81,14.5z M82,12.4c-1.8,0-2.1-2.7-0.5-3.7c0.9-0.5,1.8-0.1,2.3,0.8
		C84.4,10.7,83.4,12.4,82,12.4z"/>
	<path class="st3" d="M82.4,9.4c-0.6,0-1.1,0.9-0.8,1.5c0.2,0.6,0.9,0.3,1.2-0.3C83,10.1,82.9,9.4,82.4,9.4L82.4,9.4z"/>
	<path class="st3" d="M78.9,11c-0.1-0.6-0.3-0.9-1-0.9c-0.1,0-0.7,0.1-0.9,0.9c-0.3,1.6-1.3,1.7-1.5,2.4c-0.1,0.6,0.6,0.6,0.8,0.6
		c2.3-0.6,4.3,0.7,4.2-0.6C80.2,12.6,79.2,12.5,78.9,11L78.9,11z"/>
	<path class="st3" d="M80.6,6.4c-0.3-0.6-1-0.2-1.1,0.5c-0.1,0.5,0,1,0.3,1C80.3,8.1,80.9,7.1,80.6,6.4L80.6,6.4z"/>
	<path class="st3" d="M75.6,6.4c-0.5,0.9,0.7,2.1,1.1,1.2C77.2,6.7,76.1,5.5,75.6,6.4L75.6,6.4z"/>
</g>
<g>
	<path class="st3" d="M100.8,8.4c-0.9,0-1.6,0.7-1.6,1.6c0,0.9,0.7,1.6,1.6,1.6s1.6-0.7,1.6-1.6C102.4,9.1,101.7,8.4,100.8,8.4
		L100.8,8.4z"/>
	<path class="st3" d="M100.8,8.4"/>
	<path class="st3" d="M100.8,1c-5,0-9,4-9,9s4,9,9,9s9-4.1,9-9S105.7,1,100.8,1z M104.5,12.6c-0.7,0-1.3-0.3-1.7-0.9
		c-0.4,0.6-1.2,0.9-1.9,0.9c-1.5,0-2.6-1.2-2.6-2.6c0-1.5,1.2-2.6,2.6-2.6c0.6,0,1.1,0.2,1.6,0.6l0,0c0-0.3,0.2-0.6,0.6-0.6
		s0.6,0.2,0.6,0.6c0,1.1,0,1.5,0,2.6c0,0.6,0.5,1,1,1s1-0.4,1-1c0-3.5-2.4-5.3-4.7-5.3c-2.6,0-4.7,2.1-4.7,4.7s2.1,4.7,4.7,4.7
		c1,0,2-0.3,2.9-1c0.6-0.4,1.2,0.4,0.7,0.8c-1,0.8-2.3,1.2-3.5,1.2c-3.2,0-5.8-2.6-5.8-5.9S97.7,4,101,4c2.9,0,5.8,2.1,5.8,6.3
		C106.6,11.7,105.6,12.6,104.5,12.6z"/>
	<path class="st3" d="M104.5,12.6"/>
</g>
<g>
	<path class="st3" d="M56.4,7.5l-0.6,0.6c-0.2,0.1-0.3,0.1-0.4,0.1s-0.2,0-0.2-0.1l-0.6-0.6C54.3,7.2,53.7,7,53.1,7s-1,0.2-1.5,0.6
		c-0.8,0.8-0.8,2,0,2.8c0.8,0.9,2.9,2.7,3.7,3.4c0.8-0.7,2.9-2.5,3.7-3.4c0.8-0.9,0.8-2.1,0-2.8C58.4,6.7,57.2,6.7,56.4,7.5
		L56.4,7.5z"/>
	<path class="st3" d="M55.4,1c-4.9,0-9,4-9,9s4,9,9,9s9-4,9-9C64.5,5,60.4,1,55.4,1z M59.9,11c-1,1.1-4,3.6-4.2,3.7
		c-0.1,0.1-0.2,0.1-0.3,0.1l0,0c-0.1,0-0.2,0-0.3-0.1c-0.1-0.1-3.1-2.6-4.2-3.7c-1.1-1.2-1.1-3,0-4.2c1.1-1.1,3-1.1,4.2,0l0.4,0.2
		l0.2-0.2c1.1-1.1,3-1.1,4.2,0C61,8,61,9.8,59.9,11z"/>
</g>
<g>
	<path class="st3" d="M32.7,12.1c-1.4,0-2.5,1-2.5,2.3v4.5h5.1v-4.5C35.2,13.2,34,12.1,32.7,12.1L32.7,12.1z"/>
	<path class="st3" d="M32.7,1l-9,10.9l0.9,0.7l1.1-1.3V19H29v-4.5c0-1.8,1.7-3.4,3.7-3.4c2,0,3.7,1.5,3.7,3.4V19h3.3v-7.8l1.1,1.3
		l0.9-0.7L32.7,1z M35.3,9.1L35.3,9.1c0.2,0.2,0.2,0.6,0,0.8L35.2,10c-0.2,0.2-0.6,0.2-0.8,0l-0.5-0.4c-0.2-0.1-0.3-0.2-0.5-0.2
		h-1.6c-0.1,0-0.3,0.1-0.4,0.1L31,9.9c-0.2,0.2-0.6,0.2-0.8,0l-0.1-0.1c-0.2-0.2-0.2-0.6,0-0.8c0.2-0.2,0.2-0.6,0-0.8l0,0
		c-0.2-0.2-0.2-0.6,0-0.8l0.1-0.1c0.2-0.2,0.6-0.2,0.8,0l0.4,0.5c0.1,0.1,0.2,0.1,0.4,0.1h1.6c0.1,0,0.3-0.1,0.5-0.1l0.5-0.5
		c0.2-0.2,0.6-0.2,0.8,0l0.1,0.1c0.2,0.2,0.2,0.6,0,0.8C35.1,8.5,35.1,8.9,35.3,9.1z"/>
</g>
</svg>
