<svg xmlns="http://www.w3.org/2000/svg" viewBox="0 0 108.4 107.87"><defs><style>.cls-1{fill:#625340;stroke:#625340;stroke-miterlimit:10;}</style></defs><title>Ativo 1</title><g id="Camada_2" data-name="Camada 2"><g id="Footer"><path class="cls-1" d="M80.39,66.22c-12.29,0-18.13,8.86-18.13,23.35v17.72A53.77,53.77,0,0,0,95.6,88.4V83.94C95.6,74.34,91.89,66.22,80.39,66.22Z"/><path class="cls-1" d="M54.2.5a53.7,53.7,0,0,0-12.37,106V70.77c0-4.94,0-10.36-.08-15.06a9.81,9.81,0,0,1,9.82-10h.24a10,10,0,0,1,10,9.27v0a3,3,0,0,0,5,2.08c4.15-3.83,10.59-7,20.52-7,8.56,0,15.52,2.53,20.45,7.31.08-1.08.11-2.17.11-3.27A53.7,53.7,0,0,0,54.2.5ZM18.62,70.13a9.78,9.78,0,0,0-9.78-9.78,9.79,9.79,0,0,0,9.78-9.79,9.79,9.79,0,0,0,9.79,9.79A9.78,9.78,0,0,0,18.62,70.13ZM33,50.56A19.57,19.57,0,0,0,13.39,31,19.56,19.56,0,0,0,33,11.44,19.55,19.55,0,0,0,52.51,31,19.56,19.56,0,0,0,33,50.56Z"/></g></g></svg>