<svg xmlns="http://www.w3.org/2000/svg" viewBox="0 0 285 285"><defs><style>.cls-1{fill:#e8ccd7;}.cls-2{fill:none;stroke:#e8ccd7;stroke-miterlimit:10;stroke-width:2px;}.cls-3{fill:#fff;}</style></defs><title>Ativo 1</title><g id="Camada_2" data-name="Camada 2"><g id="Camada_1-2" data-name="Camada 1"><rect class="cls-1" x="1" y="1" width="283" height="283"/><rect class="cls-2" x="1" y="1" width="283" height="283"/><path class="cls-3" d="M58.76,35A13,13,0,0,0,45.69,28.6c-7.3,1.11-11.62,8.15-11.16,15.71a13.91,13.91,0,0,0,1.22,5.11A23.17,23.17,0,0,0,44.49,60L64.56,73.35,80.09,54.61a23.14,23.14,0,0,0,5.22-12.69A13.73,13.73,0,0,0,85,36.68c-1.79-7.35-8-12.81-15.3-11.7A13.41,13.41,0,0,0,58.76,35Z"/><path class="cls-3" d="M206.58,43.7a14,14,0,1,0-24.85,2.47L160.35,60a14,14,0,1,0-12.47,21.65,14,14,0,1,0,24.86-2.48l21.38-13.82A14,14,0,1,0,206.58,43.7Z"/><circle class="cls-3" cx="172.22" cy="169.12" r="4.72"/><path class="cls-3" d="M246.58,121.63A13,13,0,0,0,239.3,109c-6.68-3.15-14.19.3-18,6.83a13.9,13.9,0,0,0-1.84,4.92,23.21,23.21,0,0,0,1.37,13.66l9.25,22.26,23.33-6.92a23.16,23.16,0,0,0,11.4-7.64,13.85,13.85,0,0,0,2.62-4.55c2.6-7.1.49-15.09-6.2-18.24a13.39,13.39,0,0,0-14.64,2.29Z"/><circle class="cls-3" cx="77.22" cy="96.55" r="4.72"/><circle class="cls-3" cx="29.22" cy="211.55" r="4.72"/><circle class="cls-3" cx="131.22" cy="262.55" r="4.72"/><circle class="cls-3" cx="264.22" cy="29.12" r="4.72"/><path class="cls-3" d="M108,186a14,14,0,1,0-13.81-20.81L72,152.75a14.05,14.05,0,1,0-25-.9,14,14,0,1,0,13.81,20.81L83.05,185.1a14,14,0,1,0,25,.89Z"/><path class="cls-3" d="M264.9,212.28a14,14,0,1,0-23.47-8.53l-25.26,3.19a14,14,0,1,0-20.61,14.12A14,14,0,1,0,219,229.59l25.25-3.2a14,14,0,1,0,20.61-14.11Z"/></g></g></svg>