<svg xmlns="http://www.w3.org/2000/svg" viewBox="0 0 129.22 120.14"><defs><style>.cls-1{fill:#960045;}</style></defs><title>Ativo 2</title><g id="Camada_2" data-name="Camada 2"><g id="Footer"><ellipse class="cls-1" cx="99.34" cy="40.48" rx="22.15" ry="16.61" transform="matrix(0.62, -0.78, 0.78, 0.62, 5.97, 93.28)"/><ellipse class="cls-1" cx="56.63" cy="22.05" rx="22.15" ry="16.61" transform="translate(26.6 74.88) rotate(-81.66)"/><ellipse class="cls-1" cx="16.73" cy="44.63" rx="22.15" ry="16.61" transform="translate(-29.76 55.13) rotate(-82.16)"/><ellipse class="cls-1" cx="110.28" cy="85" rx="22.15" ry="16.61" transform="translate(-24.8 118.77) rotate(-51.66)"/><path class="cls-1" d="M67.46,55.67C53.91,49.82,17.21,71.48,14.18,78.51a16.6,16.6,0,0,0,8.67,21.83c4.51,2,19.12,4.63,22.67,6.17s15.52,10.31,20,12.26a16.62,16.62,0,0,0,21.84-8.67C90.42,103.07,81,61.51,67.46,55.67Z"/></g></g></svg>