<svg xmlns="http://www.w3.org/2000/svg" viewBox="0 0 166 166"><defs><style>.cls-1{fill:#e8ccd7;}.cls-2{fill:#d8bfc9;}.cls-3{fill:#960045;}.cls-4{fill:#fcfcfd;}</style></defs><title>Ativo 3</title><g id="Camada_2" data-name="Camada 2"><g id="Footer"><path class="cls-1" d="M166,83A83,83,0,1,1,83,0a83,83,0,0,1,83,83Z"/><path class="cls-2" d="M165.11,95.22C159.62,127.53,138,153,108,162.18L83.21,137.72h0C83,134.34,40.69,93,40.69,70.57A42.31,42.31,0,0,1,76.44,28.76l.11,0A45.88,45.88,0,0,1,82,28.27h2.07c11.62.24,22.82,6.14,31.69,15.43Z"/><path class="cls-3" d="M125.31,70.47c0,22.41-38.86,63.75-42.1,67.15C83,134.24,40.69,92.88,40.69,70.47A42.31,42.31,0,0,1,76.44,28.66l.11,0A42.93,42.93,0,0,1,82,28.17l1,0,1.09,0A42.29,42.29,0,0,1,125.31,70.47Z"/><path class="cls-4" d="M104.16,70.47A21.16,21.16,0,1,1,83,49.31a21.16,21.16,0,0,1,21.16,21.16Z"/></g></g></svg>