<?xml version="1.0" encoding="utf-8"?>
<!-- Generator: Adobe Illustrator 22.0.0, SVG Export Plug-In . SVG Version: 6.00 Build 0)  -->
<svg version="1.1" id="Camada_1" xmlns="http://www.w3.org/2000/svg" xmlns:xlink="http://www.w3.org/1999/xlink" x="0px" y="0px"
	 viewBox="0 0 599 91.6" style="enable-background:new 0 0 599 91.6;" xml:space="preserve">
<style type="text/css">
	.st0{fill:#F6F6F6;}
</style>
<path class="st0" d="M599,14.1v77.5H399.1c0,0-0.1-78,0-77.5c31.2,13.2,65.7,20.7,99.5,20.7h3.2C535.3,34.3,568.1,27.4,599,14.1
	L599,14.1z"/>
<path class="st0" d="M399.5,14.1v77.5H199.6c0,0-0.1-78,0-77.5c31.2,13.2,65.7,20.7,99.5,20.7h3.2C335.8,34.3,368.6,27.4,399.5,14.1
	L399.5,14.1z"/>
<path class="st0" d="M199.9,14.1v77.5H0c0,0-0.1-78,0-77.5c31.2,13.2,65.7,20.7,99.5,20.7h3.2C136.2,34.3,169,27.4,199.9,14.1
	L199.9,14.1z"/>
<rect x="197" y="16.8" class="st0" width="7" height="74.8"/>
<rect x="-5" y="15.4" class="st0" width="7" height="95.9"/>
<rect x="595" y="16.8" class="st0" width="19.7" height="74.8"/>
</svg>
