<svg xmlns="http://www.w3.org/2000/svg" viewBox="0 0 130.56 130.56"><defs><style>.cls-1{fill:#addc51;}.cls-2{fill:#94c435;}.cls-3{fill:#5a915a;}.cls-4{fill:#fff;}</style></defs><title>Ativo 1</title><g id="Camada_2" data-name="Camada 2"><g id="Serviços"><circle class="cls-1" cx="65.28" cy="65.28" r="65.28"/><path class="cls-2" d="M39.9,39.62a36,36,0,0,0-5.69,43.51l-5,18.12L58.1,130.16a65.25,65.25,0,0,0,71.2-52.07L90.82,39.62A36,36,0,0,0,39.9,39.62Z"/><path class="cls-3" d="M90.82,39.62A36,36,0,0,0,34.21,83.13l-5,18.12,18.12-5A36,36,0,0,0,90.82,39.62Z"/><path class="cls-4" d="M85.1,77.93a2.38,2.38,0,0,0-2.25-2.1,30.08,30.08,0,0,1-8.5-2.32,2.4,2.4,0,0,0-2.71.44c-.6.65-1.22,1.28-1.85,1.89A34.18,34.18,0,0,1,54.6,60.65c.61-.63,1.24-1.25,1.89-1.84a2.41,2.41,0,0,0,.44-2.72,30.41,30.41,0,0,1-2.32-8.5,2.37,2.37,0,0,0-2.1-2.25H49.84c-3.9-.22-7.27,5.11-5.58,11.25a42.41,42.41,0,0,0,29.6,29.59C80,87.87,85.32,84.5,85.1,80.6Z"/></g></g></svg>